<?xml version="1.0" encoding="utf-8"?>
<svg xmlns="http://www.w3.org/2000/svg" viewBox="0 198.559 500 96.169" xmlns:bx="https://boxy-svg.com" width="500px" height="96.169px"><defs><bx:export><bx:file format="svg"/></bx:export></defs><path d="M 0 198.652 L 500 198.652 L 500 295.193 L 0 295.193 L 0 198.652 Z" style="stroke-width: 1; fill: rgb(163, 230, 53);"/><path d="M 31.334 198.784 C 33.202 198.695 35.314 198.69 37.221 198.711 C 42.996 198.774 51.697 197.649 55.064 203.63 C 58.765 210.203 52.943 217.2 49.091 222.132 C 44.2 228.393 38.778 234.891 36.798 242.777 C 35.691 247.033 34.683 257.061 40.625 258.478 C 43.73 259.188 46.123 256.713 47.739 254.372 C 51.695 248.643 53.37 240.408 59.264 236.211 C 62.569 233.856 66.897 235.516 68.729 238.971 C 72.397 245.893 71.407 256.582 80.772 258.632 C 85.288 257.368 86.216 254.364 86.547 250.07 C 87.554 237.026 80.779 226.704 76.555 214.996 C 74.869 210.325 75.026 203.523 79.911 200.598 C 81.309 199.771 82.849 199.212 84.451 198.951 C 88.721 198.247 100.565 198.552 104.767 199.389 C 116.289 201.684 108.753 216.779 106.6 224.172 C 101.449 244.012 101.296 263.272 110.592 282.104 C 112.045 285.046 113.928 288.215 115.066 291.243 L 115.207 291.625 C 114.548 292.962 114.059 294.098 112.471 294.249 C 106.385 294.832 99.361 294.777 93.281 294.63 C 84.904 289.901 72.116 271.172 63.799 270.81 C 62.863 270.77 61.966 270.969 61.283 271.652 C 56.792 276.142 62.925 286.606 62.529 291.267 C 62.465 292.025 62.089 292.536 61.563 293.045 C 60.814 293.767 59.977 294.059 58.965 294.236 C 56.476 294.672 53.786 294.474 51.259 294.47 L 38.511 294.43 C 33.551 287.862 29.481 278.941 26.874 271.114 C 20.866 252.511 19.634 232.693 23.292 213.488 C 24.363 208.1 25.317 200.535 31.334 198.784 Z" style="stroke-width: 1; fill: rgb(51, 51, 51);"/><path d="M 276.674 198.753 C 285.223 198.487 293.922 198.846 302.495 198.698 C 304.876 198.784 310.514 198.36 312.557 199.559 C 315.903 201.522 312.743 213.884 312.299 216.844 C 311.32 223.611 310.949 230.453 311.192 237.286 C 311.771 254.405 316.237 271.061 326.932 284.541 C 328.552 286.583 331.09 289.213 331.765 291.691 C 331.313 293.513 328.702 294.532 327.072 294.568 C 322.459 294.671 317.497 294.941 312.899 294.844 C 307.839 294.737 294.604 296.19 291.889 291.068 C 288.367 284.423 300.813 278.197 296.689 270.724 L 296.539 270.458 C 295.6 269.496 294.692 268.732 293.381 268.34 C 287.916 266.71 275.33 267.897 270.317 270.665 C 269.202 271.281 268.2 272.174 267.906 273.463 C 266.685 278.828 274.506 283.898 276.785 287.783 C 277.303 288.665 277.358 289.598 277.079 290.572 C 276.767 291.663 276.056 292.822 275.029 293.365 C 271.198 295.391 252.925 295.455 248.848 294.013 C 246.902 293.325 244.987 291.985 244.161 290.031 C 243.387 288.199 243.486 285.739 243.759 283.785 C 244.429 278.977 246.226 274.141 247.499 269.448 C 252.134 252.374 257.742 233.653 264.65 217.404 C 266.824 212.293 270.082 203.665 274.257 200.072 C 274.978 199.452 275.802 199.105 276.674 198.753 Z" style="stroke-width: 1; fill: rgb(51, 51, 51);"/><path d="M 289.457 221.954 C 292.993 221.77 294.041 224.441 294.29 227.605 C 294.728 233.151 294.211 241.85 290.517 246.322 C 287.744 249.68 279.908 250.33 275.84 250.71 C 274.313 250.759 270.634 251.161 270.317 249.369 C 269.74 246.098 272.71 239.896 274.202 237.179 C 277.465 231.232 282.725 224.001 289.457 221.954 Z" style="stroke-width: 1; fill: rgb(163, 230, 53);"/><path d="M 331.568 198.773 C 341.627 198.407 352.101 198.936 362.243 198.713 C 364.929 198.655 379.22 198.453 380.789 198.987 C 390.18 202.181 406.047 223.886 391.737 231.142 C 382.034 236.063 372.712 231.31 367.434 222.565 C 364.097 217.038 359.096 213.2 352.323 215.179 C 345.674 217.124 344.036 224.969 349.014 229.516 C 352.226 232.45 356.765 234.105 360.71 235.774 C 376.128 242.361 403.488 248.734 399.631 270.891 C 398.086 279.598 391.195 286.265 383.98 290.957 C 376.304 295.788 373.313 294.702 364.57 294.688 C 357.519 294.676 350.39 294.879 343.331 294.626 C 337.746 291.592 326.006 275.583 325.757 270.059 C 325.025 253.876 348.255 255.646 353.585 267.86 C 356.624 274.825 358.096 279.364 366.471 277.971 C 373.074 276.873 376.938 268.034 371.115 263.401 C 356.243 249.924 323.275 248.015 317.45 226.362 C 315.027 217.356 321.571 200.909 331.568 198.773 Z" style="stroke-width: 1; fill: rgb(51, 51, 51);"/><path d="M 396.579 198.751 C 403.862 198.602 411.198 198.826 418.487 198.717 C 421.282 198.675 424.448 198.535 427.022 199.755 C 428.951 200.66 430.414 202.329 431.058 204.36 C 433.064 210.598 425.52 215.191 423.01 220.363 C 419.213 228.186 425.29 237.662 433.153 230.113 C 437.371 226.102 441.805 221.55 445.89 217.459 C 452.48 211.483 441.799 208.515 443.577 203.269 C 445.966 196.224 457.467 199.403 463.124 198.731 C 465.701 198.425 468.801 198.738 471.307 198.741 C 476.406 198.748 481.242 203.641 478.68 208.738 C 477.209 211.418 472.393 214.267 470.73 216.355 C 466.644 221.485 448.96 235.456 446.517 240.41 C 446.602 242.448 451.798 246.763 453.42 248.334 L 465.532 260.261 C 467.191 261.883 468.929 263.553 470.611 265.147 C 477.094 271.288 482.608 275.838 479.316 285.565 C 477.555 289.321 474.314 292.148 470.437 293.573 C 464.247 295.848 455.526 295.805 449.529 292.946 C 446.641 291.569 443.813 289.247 442.787 286.125 C 441.045 280.823 444.579 277.616 446.664 273.284 C 447.288 271.987 447.819 270.466 447.282 269.056 C 446.197 266.206 434.564 254.369 431.746 253.274 C 430.341 252.728 428.486 252.903 427.158 253.579 C 424.975 254.69 423.434 257.358 422.813 259.651 C 420.941 266.557 426.856 273.031 430.035 278.642 C 431.383 281.02 432.157 283.649 431.341 286.348 C 430.524 289.045 428.32 291.153 425.888 292.452 C 423.897 293.514 421.721 294.113 419.496 294.438 C 415.894 294.965 397.724 295.368 394.961 294.39 C 394.131 294.097 393.107 293.087 392.87 292.216 C 392.279 290.05 398.149 284.638 399.512 282.796 C 400.863 280.969 402.14 278.94 403.087 276.87 C 404.355 274.099 405.181 270.895 405.639 267.885 C 407.416 256.199 406.912 228.847 402.881 218.036 C 401.643 214.715 399.891 211.276 397.887 208.341 C 396.591 206.443 394.575 204.692 393.815 202.494 C 393.567 201.775 393.518 200.977 393.945 200.307 C 394.538 199.379 395.589 199.061 396.579 198.751 Z" style="stroke-width: 1; fill: rgb(51, 51, 51);"/><path d="M 124.259 198.763 C 140.224 198.486 156.356 198.81 172.315 198.821 C 178.709 198.825 172.234 213.626 171.533 216.681 C 168.041 231.902 162.011 226.988 150.729 222.999 C 145.125 221.017 136.733 216.269 130.991 218.851 C 127.374 220.344 123.085 233.219 125.35 235.152 C 131.251 239.352 142.356 236.648 149.269 236.215 C 161.681 235.435 169.626 237.579 168 252.265 C 166.085 269.569 111.415 246.156 131.535 273.953 C 138.033 282.161 141.804 278.595 149.215 274.744 C 164.287 266.913 175.486 263.138 183.822 281.264 C 184.7 283.175 192.612 293.571 185.393 294.365 C 177.959 295.181 169.14 294.863 161.661 294.877 L 144.15 294.889 C 141.287 294.887 132.567 295.318 130.521 293.745 C 120.642 285.937 114.854 273.993 111.712 261.843 C 106.575 241.982 111.084 220.219 119.813 202.005 C 120.76 200.027 122.24 199.214 124.259 198.763 Z" style="stroke-width: 1; fill: rgb(51, 51, 51);"/><path d="M 185.327 198.777 C 207.712 198.318 230.323 199.023 252.727 198.707 C 253.96 198.689 256.851 198.647 257.953 199.003 C 258.945 199.331 259.748 200.072 260.154 201.036 C 261.814 204.932 256.644 230.105 251.266 231.249 C 244.212 232.749 232.355 224.155 226.019 221.311 L 225.638 221.142 C 224.346 225.781 224.776 232.352 225.022 237.219 C 225.743 251.515 226.874 265.043 232.014 278.52 C 233.592 282.163 237.374 287.827 235.103 291.761 C 234.309 293.137 231.252 294.511 229.73 294.596 C 220.856 295.087 211.414 295.365 202.6 294.183 C 198.879 293.678 196.023 290.347 196.409 286.552 C 196.98 280.931 199.623 275.978 200.602 270.383 C 201.971 262.559 202.059 254.61 202.491 246.696 C 202.814 238.647 203.404 229.394 202.481 221.471 C 197.294 223.384 181.036 232.428 176.187 230.089 C 171.21 227.688 178.067 206.722 180.489 203.278 C 182.046 201.065 182.528 199.642 185.327 198.777 Z" style="stroke-width: 1; fill: rgb(51, 51, 51);"/></svg>