<svg width="494" height="500" viewBox="0 0 494 500" fill="none" xmlns="http://www.w3.org/2000/svg">
<path d="M244.113 499.994C236.89 500.103 230.661 498.835 224.227 495.468L52.639 397.278C17.76 378.1 0.027 371.626 0 325.979L0.109 171.96C1.826 137.763 24.207 126 49.899 111.348L214.659 17.028L242.56 0.0719717C244.645 -0.378028 246.158 1.38097 247.875 2.41697L450.349 119.553C470.099 130.716 486.291 148.244 486.823 171.96L486.905 321.495C486.905 328.882 487.491 336.842 486.141 344.121C480.103 376.737 457 384.398 431.008 398.75L260.497 496.082C255.126 498.644 250.083 499.871 244.113 499.994ZM243.214 78.54L109.435 156.149L244.018 233.104L377.633 156.122L243.227 78.54H243.214ZM67.114 210.165C67.823 221.124 67.319 232.314 67.332 243.313L67.387 320.854C67.387 322.204 67.032 325.352 67.646 326.429L208.757 405.892L208.975 304.839C208.975 293.022 211.865 294.957 203.51 289.56L67.114 210.165ZM420.009 210.451L283.872 289.069C282.005 290.146 279.17 291.114 277.793 292.681L278.161 406.982L420.336 325.148C419.218 313.167 420.895 211.433 420.009 210.451Z" fill="#A3E635"/>
<path d="M464.58 101.847C449.001 102.269 436.011 93.8189 429.796 79.6439C425.939 70.8519 427.833 58.0949 427.833 48.5809V35.2509C427.833 16.5089 437.32 2.10193 457.492 0.0719326C477.201 -1.18207 493.435 14.0009 493.489 33.8189L493.516 63.6279C493.462 82.8599 486.183 98.9159 464.594 101.833L464.58 101.847Z" fill="#A3E635"/>
</svg>
